<?xml version="1.0" encoding="utf-8"?>
<!-- Generator: Adobe Illustrator 25.4.1, SVG Export Plug-In . SVG Version: 6.00 Build 0)  -->
<svg version="1.1" xmlns="http://www.w3.org/2000/svg" xmlns:xlink="http://www.w3.org/1999/xlink" x="0px" y="0px"
	 viewBox="0 0 512 134.62" style="enable-background:new 0 0 512 134.62;" xml:space="preserve">
<style type="text/css">
	.st0{display:none;}
	.st1{display:inline;}
</style>
<g id="Calque_1" class="st0">
	<path class="st1" d="M380.44,44.34c2.35-3.56,5.5-6.39,9.46-8.48c3.95-2.09,8.28-3.13,12.98-3.13c8.43,0,14.91,2.52,19.43,7.56
		c4.52,5.04,6.78,12.43,6.78,22.17v36.51h-16.69V64.03c0-5.56-1.07-9.82-3.2-12.78c-2.13-2.95-5.41-4.43-9.85-4.43
		c-4.52,0-8.15,1.65-10.89,4.95c-2.74,3.31-4.11,7.91-4.11,13.82v33.39h-16.69V64.03c0-5.56-1.09-9.82-3.26-12.78"/>
	<path class="st1" d="M335.71,44.34c2.35-3.56,5.5-6.39,9.46-8.48c3.95-2.09,8.28-3.13,12.98-3.13c8.43,0,14.91,2.52,19.43,7.56
		c4.52,5.04,6.78,12.43,6.78,22.17v36.51h-16.69V64.03c0-5.56-1.07-9.82-3.2-12.78c-2.13-2.95-5.41-4.43-9.85-4.43
		c-4.52,0-8.15,1.65-10.89,4.95c-2.74,3.31-4.11,7.91-4.11,13.82v33.39h-16.69V64.03c0-5.56-1.09-9.82-3.26-12.78"/>
	<path class="st1" d="M290.98,44.34c2.35-3.56,5.5-6.39,9.46-8.48c3.95-2.09,8.28-3.13,12.98-3.13c8.43,0,14.91,2.52,19.43,7.56
		c4.52,5.04,6.78,12.43,6.78,22.17v36.51h-16.69V64.04c0-5.56-1.07-9.82-3.2-12.78c-2.13-2.95-5.41-4.43-9.85-4.43
		c-4.52,0-8.15,1.65-10.89,4.95c-2.74,3.31-4.11,7.91-4.11,13.82v33.39H278.2V64.04c0-5.56-1.09-9.82-3.26-12.78"/>
	<path class="st1" d="M246.25,44.34c2.35-3.56,5.5-6.39,9.46-8.48c3.95-2.09,8.28-3.13,12.98-3.13c8.43,0,14.91,2.52,19.43,7.56
		c4.52,5.04,6.78,12.43,6.78,22.17v36.51H278.2V64.04c0-5.56-1.07-9.82-3.2-12.78c-2.13-2.95-5.41-4.43-9.85-4.43
		c-4.52,0-8.15,1.65-10.89,4.95c-2.74,3.31-4.11,7.91-4.11,13.82v33.39h-16.69V64.04c0-5.56-1.09-9.82-3.26-12.78"/>
	<path class="st1" d="M47.69,100.6c-5.74,0-10.78-0.94-15.13-2.8c-4.35-1.87-7.82-4.45-10.43-7.76c-2.61-3.3-4.17-7.13-4.69-11.48
		h16.82c0.52,2.52,1.93,4.67,4.24,6.46c2.3,1.78,5.28,2.67,8.93,2.67s6.32-0.74,8.02-2.22c1.7-1.48,2.54-3.17,2.54-5.09
		c0-2.78-1.22-4.67-3.65-5.67c-2.44-1-5.83-1.98-10.17-2.93c-2.78-0.61-5.61-1.35-8.48-2.22c-2.87-0.87-5.5-1.98-7.89-3.33
		c-2.39-1.35-4.33-3.08-5.8-5.22c-1.48-2.13-2.22-4.76-2.22-7.89c0-5.74,2.28-10.56,6.85-14.48c4.56-3.91,10.97-5.87,19.24-5.87
		c7.65,0,13.76,1.78,18.32,5.35c4.56,3.57,7.28,8.48,8.15,14.74H56.56c-0.96-4.78-4.56-7.17-10.82-7.17c-3.13,0-5.54,0.61-7.24,1.82
		c-1.7,1.22-2.54,2.74-2.54,4.56c0,1.91,1.26,3.44,3.78,4.56c2.52,1.13,5.87,2.17,10.04,3.13c4.52,1.04,8.67,2.2,12.45,3.46
		c3.78,1.26,6.8,3.13,9.06,5.61c2.26,2.48,3.39,6.02,3.39,10.63c0.09,4-0.96,7.61-3.13,10.82c-2.17,3.22-5.3,5.74-9.39,7.56
		C58.08,99.68,53.25,100.6,47.69,100.6z"/>
	<path class="st1" d="M102.29,100.6c-8.09,0-14.32-2.52-18.71-7.56c-4.39-5.04-6.59-12.43-6.59-22.17V34.35h16.56V69.3
		c0,5.57,1.13,9.83,3.39,12.78c2.26,2.96,5.82,4.43,10.69,4.43c4.61,0,8.41-1.65,11.41-4.95c3-3.3,4.5-7.91,4.5-13.82V34.35h16.69
		v64.68h-14.74l-1.3-10.95c-2,3.83-4.89,6.87-8.67,9.13C111.75,99.47,107.33,100.6,102.29,100.6z"/>
	<path class="st1" d="M143.8,99.03V34.35h14.74l1.43,8.74c2.09-3.13,4.85-5.63,8.28-7.5c3.43-1.87,7.41-2.8,11.93-2.8
		c10,0,17.08,3.87,21.26,11.61c2.35-3.56,5.5-6.39,9.45-8.48c3.95-2.09,8.28-3.13,12.98-3.13c8.43,0,14.91,2.52,19.43,7.56
		c4.52,5.04,6.78,12.43,6.78,22.17v36.51h-16.69V64.08c0-5.56-1.07-9.82-3.19-12.78c-2.13-2.95-5.41-4.43-9.85-4.43
		c-4.52,0-8.15,1.65-10.89,4.95c-2.74,3.31-4.11,7.91-4.11,13.82v33.39h-16.69V64.08c0-5.56-1.09-9.82-3.26-12.78
		c-2.17-2.95-5.52-4.43-10.04-4.43c-4.43,0-8.02,1.65-10.76,4.95c-2.74,3.31-4.11,7.91-4.11,13.82v33.39H143.8z"/>
	<path class="st1" d="M201.47,44.34c2.35-3.56,5.5-6.39,9.46-8.48c3.95-2.09,8.28-3.13,12.98-3.13c8.43,0,14.91,2.52,19.43,7.56
		c4.52,5.04,6.78,12.43,6.78,22.17v36.51h-16.69V64.04c0-5.56-1.07-9.82-3.2-12.78c-2.13-2.95-5.41-4.43-9.85-4.43
		c-4.52,0-8.15,1.65-10.89,4.95c-2.74,3.31-4.11,7.91-4.11,13.82v33.39h-16.69V64.04c0-5.56-1.09-9.82-3.26-12.78"/>
	<g class="st1">
		<path d="M463.99,99.05c-6.27,0-11.84-1.34-16.69-4.02c-4.85-2.68-8.66-6.44-11.42-11.29c-2.76-4.85-4.14-10.46-4.14-16.81
			c0-6.44,1.36-12.17,4.08-17.19c2.72-5.02,6.48-8.93,11.29-11.73c4.81-2.8,10.48-4.2,17-4.2c6.11,0,11.5,1.34,16.19,4.02
			c4.68,2.68,8.34,6.34,10.98,10.98c2.63,4.64,3.95,9.81,3.95,15.49c0,0.92-0.02,1.88-0.06,2.89c-0.04,1-0.11,2.05-0.19,3.14h-47.3
			c0.33,4.85,2.03,8.66,5.08,11.42c3.05,2.76,6.75,4.14,11.1,4.14c3.26,0,6-0.73,8.22-2.2c2.21-1.46,3.87-3.37,4.95-5.71h16.31
			c-1.17,3.93-3.12,7.51-5.83,10.73c-2.72,3.22-6.07,5.75-10.04,7.59C473.5,98.13,469.01,99.05,463.99,99.05z M464.11,46.85
			c-3.93,0-7.4,1.11-10.41,3.32c-3.01,2.22-4.94,5.58-5.77,10.1h30.99c-0.25-4.1-1.76-7.36-4.52-9.79
			C471.64,48.07,468.21,46.85,464.11,46.85z"/>
	</g>
</g>
<g id="Calque_2">
	<g>
		<path d="M51.36,108.8c-5.55,0-10.42-0.9-14.62-2.71c-4.2-1.81-7.56-4.31-10.09-7.5c-2.52-3.19-4.03-6.89-4.54-11.09h16.26
			c0.5,2.44,1.87,4.52,4.1,6.24c2.23,1.72,5.11,2.58,8.64,2.58s6.11-0.71,7.75-2.14c1.64-1.43,2.46-3.07,2.46-4.92
			c0-2.69-1.18-4.52-3.53-5.48c-2.35-0.96-5.63-1.91-9.83-2.84c-2.69-0.59-5.42-1.3-8.19-2.14c-2.77-0.84-5.32-1.91-7.63-3.21
			c-2.31-1.3-4.18-2.98-5.61-5.04c-1.43-2.06-2.14-4.6-2.14-7.63c0-5.55,2.21-10.21,6.62-13.99c4.41-3.78,10.61-5.67,18.59-5.67
			c7.39,0,13.3,1.72,17.71,5.17c4.41,3.45,7.04,8.19,7.88,14.25H59.93c-0.93-4.62-4.41-6.93-10.46-6.93c-3.03,0-5.36,0.59-7,1.77
			c-1.64,1.18-2.46,2.65-2.46,4.41c0,1.85,1.22,3.32,3.66,4.41c2.44,1.09,5.67,2.1,9.71,3.03c4.37,1.01,8.38,2.12,12.04,3.34
			c3.66,1.22,6.57,3.03,8.76,5.42c2.18,2.4,3.28,5.82,3.28,10.27c0.08,3.87-0.93,7.36-3.03,10.46c-2.1,3.11-5.13,5.55-9.08,7.31
			C61.4,107.91,56.73,108.8,51.36,108.8z"/>
		<path d="M112.62,108.8c-6.3,0-11.89-1.35-16.77-4.03c-4.88-2.69-8.7-6.47-11.47-11.35c-2.77-4.87-4.16-10.5-4.16-16.89
			c0-6.47,1.36-12.23,4.1-17.27c2.73-5.04,6.51-8.97,11.35-11.79c4.83-2.81,10.53-4.22,17.08-4.22c6.13,0,11.55,1.35,16.26,4.03
			c4.71,2.69,8.38,6.37,11.03,11.03s3.97,9.85,3.97,15.57c0,0.93-0.02,1.89-0.06,2.9c-0.04,1.01-0.11,2.06-0.19,3.15H96.24
			c0.33,4.88,2.04,8.7,5.11,11.47c3.07,2.77,6.79,4.16,11.16,4.16c3.28,0,6.03-0.73,8.26-2.21c2.23-1.47,3.89-3.38,4.98-5.74h16.39
			c-1.18,3.95-3.13,7.54-5.86,10.78c-2.73,3.24-6.09,5.78-10.09,7.63C122.18,107.87,117.67,108.8,112.62,108.8z M112.75,56.35
			c-3.95,0-7.44,1.12-10.46,3.34c-3.03,2.23-4.96,5.61-5.8,10.15h31.14c-0.25-4.12-1.77-7.39-4.54-9.83
			C120.31,57.57,116.87,56.35,112.75,56.35z"/>
		<path d="M148.17,107.28V44.76h14.25l1.26,10.59c1.93-3.7,4.73-6.64,8.38-8.82c3.66-2.18,7.96-3.28,12.92-3.28
			c7.73,0,13.74,2.44,18.03,7.31c4.29,4.88,6.43,12.02,6.43,21.43v35.3H193.3V73.5c0-5.38-1.09-9.5-3.28-12.35
			c-2.19-2.86-5.59-4.29-10.21-4.29c-4.54,0-8.26,1.6-11.16,4.79c-2.9,3.19-4.35,7.65-4.35,13.36v32.27H148.17z"/>
		<path d="M243.22,107.28c-6.56,0-11.81-1.6-15.76-4.79c-3.95-3.19-5.92-8.87-5.92-17.02V58.24h-10.72V44.76h10.72l1.89-16.77h14.25
			v16.77h16.89v13.49h-16.89V85.6c0,3.03,0.65,5.11,1.95,6.24c1.3,1.13,3.55,1.7,6.74,1.7h7.82v13.74H243.22z"/>
		<path d="M267.68,35.05c-2.94,0-5.36-0.88-7.25-2.65c-1.89-1.76-2.84-3.99-2.84-6.68c0-2.69,0.95-4.89,2.84-6.62
			c1.89-1.72,4.31-2.58,7.25-2.58c2.94,0,5.36,0.86,7.25,2.58c1.89,1.72,2.84,3.93,2.84,6.62c0,2.69-0.95,4.92-2.84,6.68
			C273.04,34.17,270.62,35.05,267.68,35.05z M259.61,107.28V44.76h16.14v62.53H259.61z"/>
		<path d="M299.57,108.17c-2.94,0-5.36-0.92-7.25-2.77c-1.89-1.85-2.84-4.08-2.84-6.68c0-2.69,0.95-4.96,2.84-6.81
			c1.89-1.85,4.31-2.77,7.25-2.77c2.94,0,5.36,0.93,7.25,2.77c1.89,1.85,2.84,4.12,2.84,6.81c0,2.61-0.95,4.83-2.84,6.68
			C304.93,107.24,302.51,108.17,299.57,108.17z"/>
		<path d="M322.89,107.28V44.76h14.25l1.39,8.45c2.02-3.03,4.68-5.44,8-7.25c3.32-1.81,7.16-2.71,11.54-2.71
			c9.66,0,16.51,3.74,20.55,11.22c2.27-3.45,5.31-6.18,9.14-8.19c3.82-2.02,8-3.03,12.54-3.03c8.15,0,14.41,2.44,18.78,7.31
			c4.37,4.88,6.55,12.02,6.55,21.43v35.3H409.5V73.5c0-5.38-1.03-9.5-3.09-12.35c-2.06-2.86-5.23-4.29-9.52-4.29
			c-4.37,0-7.88,1.6-10.53,4.79c-2.65,3.19-3.97,7.65-3.97,13.36v32.27h-16.14V73.5c0-5.38-1.05-9.5-3.15-12.35
			c-2.1-2.86-5.34-4.29-9.71-4.29c-4.29,0-7.75,1.6-10.4,4.79c-2.65,3.19-3.97,7.65-3.97,13.36v32.27H322.89z"/>
		<path d="M461.94,108.8c-6.3,0-11.89-1.35-16.77-4.03c-4.88-2.69-8.7-6.47-11.47-11.35c-2.77-4.87-4.16-10.5-4.16-16.89
			c0-6.47,1.37-12.23,4.1-17.27c2.73-5.04,6.51-8.97,11.35-11.79c4.83-2.81,10.53-4.22,17.08-4.22c6.13,0,11.55,1.35,16.26,4.03
			c4.71,2.69,8.38,6.37,11.03,11.03s3.97,9.85,3.97,15.57c0,0.93-0.02,1.89-0.06,2.9c-0.04,1.01-0.11,2.06-0.19,3.15h-47.53
			c0.33,4.88,2.04,8.7,5.11,11.47c3.07,2.77,6.79,4.16,11.16,4.16c3.28,0,6.03-0.73,8.26-2.21c2.23-1.47,3.89-3.38,4.98-5.74h16.39
			c-1.18,3.95-3.13,7.54-5.86,10.78c-2.73,3.24-6.09,5.78-10.08,7.63C471.5,107.87,466.99,108.8,461.94,108.8z M462.07,56.35
			c-3.95,0-7.44,1.12-10.46,3.34c-3.03,2.23-4.96,5.61-5.8,10.15h31.14c-0.25-4.12-1.76-7.39-4.54-9.83
			C469.63,57.57,466.19,56.35,462.07,56.35z"/>
	</g>
</g>
</svg>
